<?xml version="1.0" encoding="UTF-8" standalone="no"?>
<svg
   width="800"
   height="600"
   version="1.1"
   id="svg1"
   sodipodi:docname="zoe.svg"
   inkscape:version="1.4.2 (f4327f4, 2025-05-13)"
   xmlns:inkscape="http://www.inkscape.org/namespaces/inkscape"
   xmlns:sodipodi="http://sodipodi.sourceforge.net/DTD/sodipodi-0.dtd"
   xmlns="http://www.w3.org/2000/svg"
   xmlns:svg="http://www.w3.org/2000/svg">
  <sodipodi:namedview
     id="namedview1"
     pagecolor="#505050"
     bordercolor="#eeeeee"
     borderopacity="1"
     inkscape:showpageshadow="0"
     inkscape:pageopacity="0"
     inkscape:pagecheckerboard="0"
     inkscape:deskcolor="#505050"
     inkscape:zoom="0.4"
     inkscape:cx="400"
     inkscape:cy="300"
     inkscape:window-width="933"
     inkscape:window-height="656"
     inkscape:window-x="1915"
     inkscape:window-y="699"
     inkscape:window-maximized="0"
     inkscape:current-layer="svg1" />
  <defs
     id="defs1" />
  <g
     id="g1">
    <title
       id="title1">Layer 1</title>
    <path
       id="svg_1"
       d="m 386.27737,186.05731 c -38.44948,0 -68.47987,10.12442 -90.09113,30.37238 -21.47868,20.24795 -32.21842,48.13666 -32.21842,83.66608 0,35.27474 10.6729,63.09923 32.01899,83.47453 21.47867,20.24796 51.57591,30.37238 90.29056,30.37238 38.71466,0 68.74505,-10.12442 90.09114,-30.37238 21.47867,-20.37529 32.21842,-48.19979 32.21842,-83.47452 0,-35.27473 -10.6729,-63.10054 -32.01899,-83.47584 -21.21351,-20.3753 -51.31074,-30.56262 -90.29057,-30.56263 z m 284.19546,0 c -39.37758,0 -70.40278,10.37865 -93.07472,31.13599 -22.53935,20.62999 -33.80861,48.64581 -33.80861,84.04788 0,35.78412 11.93246,63.3544 35.79766,82.71091 23.8652,19.35654 58.2038,29.03543 103.01734,29.03543 17.36855,0 33.2121,-1.40085 47.53121,-4.20245 14.31912,-2.8016 29.56634,-7.32261 45.74161,-13.56254 v -55.20404 h -7.95489 c -8.22023,5.98524 -19.42264,11.58867 -33.60915,16.80985 -14.18658,5.22116 -28.8374,7.83155 -43.952,7.83155 -23.8652,0 -41.96311,-4.4568 -54.29346,-13.37099 -12.19777,-8.91419 -18.82722,-21.77612 -19.88789,-38.58574 H 779.85488 V 288.6338 c 0,-33.10986 -9.14861,-58.45107 -27.44524,-76.02477 -18.29663,-17.70104 -45.60866,-26.55172 -81.93681,-26.55172 z m -645.554521,6.68615 v 50.23796 H 137.8809 L 20.145115,363.13135 v 44.12518 H 229.95977 V 356.0634 H 111.82775 L 227.77261,236.10371 v -43.36025 z m 327.110921,33.7312 h 69.07096 l 43.06636,53.44065 -15.37054,66.63976 -62.2313,29.65731 -62.23131,-29.65732 -15.37052,-66.63975 z m 312.67587,2.56241 c 14.84946,0 25.78711,3.6286 32.81412,10.88729 7.02692,7.25871 10.7401,18.08291 11.13784,32.47297 h -92.87657 c 1.06069,-15.15413 6.03341,-26.16966 14.91656,-33.04632 8.88317,-6.87667 20.21927,-10.31394 34.00805,-10.31394 z"
       style="stroke-width:0.671764" />
  </g>
</svg>
